<?xml version="1.0" standalone="no"?>
<!DOCTYPE svg PUBLIC "-//W3C//DTD SVG 20010904//EN"
 "http://www.w3.org/TR/2001/REC-SVG-20010904/DTD/svg10.dtd">
<svg version="1.0" xmlns="http://www.w3.org/2000/svg"
 width="578.000000pt" height="104.000000pt" viewBox="0 0 578.000000 104.000000"
 preserveAspectRatio="xMidYMid meet">

<g transform="translate(0.000000,104.000000) scale(0.100000,-0.100000)"
fill="#000000" stroke="none">
<path d="M339 886 c-71 -29 -106 -56 -142 -108 -39 -59 -52 -111 -51 -218 0
-83 3 -103 28 -158 31 -67 72 -109 138 -143 147 -75 430 -6 378 92 -14 24 -46
24 -101 -1 -82 -37 -201 -23 -258 31 -60 57 -84 212 -46 307 45 112 192 155
315 92 55 -28 90 -17 90 29 0 85 -216 133 -351 77z"/>
<path d="M2900 901 c-71 -23 -130 -72 -149 -124 -17 -44 -13 -118 8 -157 24
-47 100 -84 220 -110 52 -11 105 -27 117 -35 48 -31 41 -97 -13 -132 -21 -14
-47 -18 -113 -18 -72 1 -95 5 -147 29 -52 24 -66 26 -78 16 -20 -17 -19 -63 3
-83 55 -50 252 -76 349 -47 77 24 139 90 143 155 5 79 0 97 -37 135 -41 40
-86 57 -218 86 -125 27 -167 85 -110 152 44 52 170 61 254 18 44 -23 70 -20
83 10 16 34 3 52 -57 83 -39 19 -68 25 -140 27 -49 2 -101 0 -115 -5z"/>
<path d="M931 699 c-115 -21 -182 -107 -182 -233 0 -107 47 -187 131 -223 48
-20 155 -19 207 2 166 67 175 352 13 431 -54 26 -109 33 -169 23z m108 -94
c38 -19 61 -71 61 -140 0 -100 -44 -155 -123 -155 -67 0 -117 66 -117 155 0
119 88 188 179 140z"/>
<path d="M1550 700 c-38 -6 -100 -46 -100 -64 -1 -6 -9 5 -18 24 -19 38 -60
52 -88 29 -19 -15 -21 -428 -2 -447 20 -20 76 -15 88 7 5 11 10 80 10 153 0
115 3 137 20 166 23 38 62 55 101 47 49 -11 54 -26 59 -202 5 -179 8 -186 65
-181 46 4 55 34 55 187 l0 133 35 35 c31 31 40 35 72 30 64 -11 67 -19 73
-200 3 -89 9 -168 13 -174 11 -18 72 -16 86 1 9 10 11 66 9 195 -3 164 -5 182
-24 208 -56 76 -182 75 -255 -1 -29 -31 -35 -32 -42 -7 -10 41 -92 72 -157 61z"/>
<path d="M2415 703 c-53 -9 -67 -15 -99 -43 l-34 -30 -7 27 c-8 33 -21 43 -55
43 -49 0 -50 -4 -50 -319 0 -163 4 -301 8 -308 15 -24 59 -26 81 -4 19 19 21
33 21 128 l0 107 28 -26 c42 -39 71 -51 129 -50 78 1 134 36 168 107 56 113
26 276 -60 334 -36 24 -94 39 -130 34z m49 -104 c38 -30 56 -71 56 -129 0 -62
-19 -110 -55 -138 -53 -42 -139 -21 -169 42 -20 43 -21 138 -1 180 30 63 116
86 169 45z"/>
<path d="M3509 699 c-57 -9 -84 -22 -127 -62 -77 -73 -81 -236 -8 -331 57 -75
190 -102 289 -58 41 18 47 25 47 51 0 38 -23 46 -80 26 -57 -20 -88 -19 -127
5 -49 30 -66 71 -61 153 3 63 7 72 36 98 41 37 76 45 126 30 80 -24 93 -25
105 -2 17 31 -1 57 -51 74 -59 21 -95 25 -149 16z"/>
<path d="M3947 698 c-111 -20 -178 -107 -178 -232 0 -150 84 -237 231 -238
121 -1 195 51 226 159 22 74 8 169 -33 227 -49 69 -145 102 -246 84z m112 -93
c38 -19 61 -71 61 -140 0 -100 -44 -155 -123 -155 -67 0 -117 66 -117 155 0
119 88 188 179 140z"/>
<path d="M4575 700 c-42 -9 -70 -26 -93 -55 -25 -32 -32 -32 -32 3 0 35 -16
52 -49 52 -55 0 -56 -3 -59 -220 -3 -171 -1 -205 13 -226 20 -31 79 -34 95 -5
5 11 10 78 10 150 0 125 1 131 26 160 23 28 42 36 125 55 31 7 42 27 33 61 -7
27 -27 34 -69 25z"/>
<path d="M4872 699 c-139 -26 -215 -170 -170 -323 17 -55 81 -118 138 -135
130 -39 311 13 284 83 -9 24 -30 26 -83 5 -115 -43 -220 -9 -237 79 l-6 32
150 0 c83 0 157 3 166 6 11 4 16 19 16 43 0 144 -114 237 -258 210z m106 -83
c31 -16 51 -48 54 -86 l3 -25 -119 -3 -119 -3 7 33 c9 48 66 98 111 98 20 0
48 -6 63 -14z"/>
<path d="M5369 699 c-118 -18 -177 -102 -134 -192 20 -42 54 -60 155 -81 51
-11 81 -22 93 -37 21 -27 21 -31 -2 -60 -17 -21 -28 -24 -83 -23 -35 0 -85 9
-111 19 -39 15 -49 15 -62 5 -28 -23 -13 -53 37 -79 39 -18 64 -23 131 -23
136 -1 202 47 202 145 0 69 -36 99 -142 122 -110 24 -112 24 -124 46 -16 30
-1 59 38 76 39 16 91 11 152 -14 33 -14 36 -14 53 7 24 30 10 54 -44 73 -57
20 -103 25 -159 16z"/>
</g>
</svg>
