<svg version="1.1" id="Layer_1" xmlns="http://www.w3.org/2000/svg" xmlns:xlink="http://www.w3.org/1999/xlink" x="0px" y="0px"
	 width="100%" viewBox="0 0 578 104" enable-background="new 0 0 578 104" xml:space="preserve">
<path fill="#FEFEFE" opacity="1.000000" stroke="none" 
	d="
M428.000000,105.000000 
	C285.333374,105.000000 143.166718,105.000000 1.000057,105.000000 
	C1.000038,70.333366 1.000038,35.666729 1.000019,1.000071 
	C193.666611,1.000047 386.333221,1.000047 578.999878,1.000024 
	C578.999878,35.666595 578.999878,70.333191 578.999939,104.999893 
	C528.833313,105.000000 478.666656,105.000000 428.000000,105.000000 
M145.118027,59.701427 
	C145.382889,56.892418 145.228806,53.954601 146.040741,51.313801 
	C146.731812,49.066093 148.102829,46.586708 149.927704,45.210682 
	C155.478363,41.025280 162.263092,44.330055 162.691681,51.576488 
	C163.172684,59.708988 162.831223,67.887131 162.996628,76.042389 
	C163.103027,81.288872 166.906235,84.363167 171.064194,82.153938 
	C172.928070,81.163635 174.628235,78.203468 174.802475,76.010086 
	C175.302002,69.721870 174.791214,63.360111 175.072449,57.044849 
	C175.202133,54.132668 175.888062,51.116390 176.968842,48.405262 
	C178.642822,44.206047 182.325806,43.385712 186.488098,43.837818 
	C190.640305,44.288837 192.232315,47.112919 192.374451,50.687031 
	C192.718155,59.328873 192.774246,67.982887 192.889404,76.632744 
	C192.940750,80.489372 194.910141,82.628166 198.643173,82.730408 
	C202.090393,82.824829 204.681671,80.929337 204.674942,77.411362 
	C204.654892,66.942909 204.876190,56.410778 203.803741,46.027420 
	C202.936081,37.626678 196.041000,33.313519 187.563751,34.183117 
	C181.503998,34.804729 176.736664,37.611160 173.140747,43.199562 
	C170.643311,36.924763 165.980530,34.443592 160.079025,34.152046 
	C154.110016,33.857159 149.323364,36.563854 145.050064,41.416103 
	C144.782898,36.561214 142.759872,34.046474 138.396637,34.366436 
	C135.064835,34.610760 133.226746,36.794327 133.199600,40.015968 
	C133.095810,52.336079 133.072464,64.658585 133.212677,76.978004 
	C133.255295,80.721573 135.617630,82.841019 139.364838,82.735565 
	C143.107407,82.630241 145.107544,80.513283 145.093292,76.640762 
	C145.073669,71.312515 145.107254,65.984070 145.118027,59.701427 
M273.731110,70.192444 
	C274.507751,72.491592 274.579285,75.694557 276.177124,76.941071 
	C285.537598,84.243469 306.539459,84.886887 316.711517,78.617912 
	C323.280487,74.569496 326.368591,68.592049 325.815582,60.966915 
	C325.282288,53.613689 320.702789,49.261105 314.086884,46.924217 
	C310.651459,45.710735 307.063629,44.919983 303.528809,43.999058 
	C299.672394,42.994339 295.514221,42.628498 292.031708,40.892593 
	C289.755005,39.757751 287.180725,36.759579 287.037933,34.453682 
	C286.875305,31.828068 288.714355,28.479193 290.724335,26.504005 
	C292.394623,24.862644 295.663239,23.890497 298.065399,24.141092 
	C303.918854,24.751728 309.727203,26.053711 315.458374,27.464663 
	C318.199158,28.139416 320.727875,29.152628 322.423553,26.063406 
	C324.050232,23.099937 323.110504,20.691088 320.401154,18.748823 
	C310.618500,11.735829 292.230530,11.581759 282.477081,18.569019 
	C276.415894,22.911169 273.763580,28.975130 274.368652,36.314117 
	C274.982910,43.764790 279.384613,48.440155 286.194824,50.950817 
	C288.677216,51.865982 291.289948,52.438747 293.860107,53.102249 
	C298.843750,54.388817 304.036346,55.153797 308.740936,57.103485 
	C310.861237,57.982189 313.171143,61.122925 313.290649,63.350216 
	C313.411865,65.609726 311.297974,68.359978 309.475647,70.222908 
	C308.255402,71.470322 305.874329,71.840080 303.946045,72.091713 
	C296.170227,73.106361 288.675720,72.108826 281.654236,68.396645 
	C278.854187,66.916267 276.068512,65.691864 273.731110,70.192444 
M259.941956,75.354660 
	C266.215729,65.556488 266.561676,55.256180 261.877380,44.885864 
	C259.275238,39.125050 254.446930,35.705418 248.050293,34.561840 
	C240.510468,33.213882 234.379974,35.594742 229.147491,41.695408 
	C229.076111,36.746075 227.092819,33.977913 222.464035,34.381100 
	C217.917892,34.777092 217.135300,38.204063 217.137421,42.012943 
	C217.146729,58.840748 217.132599,75.668571 217.148819,92.496368 
	C217.152725,96.551895 218.190704,99.881477 223.133713,99.979591 
	C227.286438,100.062035 229.079849,97.914101 229.150711,92.661995 
	C229.223038,87.300781 229.166702,81.937828 229.166702,75.999214 
	C240.823380,85.360954 250.089737,85.160988 259.941956,75.354660 
M56.933086,70.804535 
	C40.996658,74.197960 31.092937,68.791260 28.432556,54.974087 
	C27.811771,51.749931 27.904940,48.335991 28.049719,45.026001 
	C28.610085,32.214733 35.582130,24.801105 48.300621,24.531443 
	C52.732521,24.437477 57.328106,26.263153 61.632931,27.812353 
	C65.074661,29.050941 68.152351,30.164827 70.123291,26.096262 
	C71.980972,22.261490 69.844231,19.714926 66.600075,17.983736 
	C55.617516,12.123071 44.138596,11.623110 32.931099,16.585230 
	C18.695097,22.888224 14.548799,35.314426 14.854178,49.807377 
	C15.313097,71.587090 30.486183,85.221001 52.116955,82.620132 
	C57.695469,81.949364 63.163132,79.338509 68.359856,76.925659 
	C71.097580,75.654526 71.910423,72.634659 70.035408,69.616631 
	C68.252800,66.747330 65.866951,66.734955 63.129742,68.044342 
	C61.334232,68.903252 59.501297,69.683914 56.933086,70.804535 
M122.780991,54.048431 
	C120.230782,41.509739 113.335945,35.274536 100.807800,34.177422 
	C88.160385,33.069862 78.186317,40.427845 75.754684,52.659382 
	C73.053940,66.244598 79.312386,78.491524 91.177040,81.757088 
	C109.162125,86.707207 125.139496,75.962555 122.780991,54.048431 
M383.457092,40.969772 
	C376.024872,50.272617 374.986969,63.385910 380.952484,72.614037 
	C387.709930,83.067162 404.251709,86.243996 415.098053,79.171646 
	C425.561737,72.348808 428.513794,54.742058 421.011780,43.900230 
	C412.978577,32.290661 395.844055,30.696136 383.457092,40.969772 
M512.323853,77.725632 
	C512.506836,75.624359 512.689758,73.523079 512.872681,71.421806 
	C510.747437,71.334778 508.562378,70.893082 506.510193,71.239204 
	C502.936462,71.841919 499.487946,73.383690 495.909973,73.725136 
	C487.295959,74.547173 481.361206,69.223640 481.638824,61.186279 
	C490.782837,61.186279 499.935944,61.185883 509.089081,61.186527 
	C511.749207,61.186714 514.091187,60.879498 514.467285,57.442638 
	C515.557495,47.479935 508.804413,37.455818 499.221436,34.956936 
	C489.123627,32.323799 479.045654,36.033066 473.378845,44.468491 
	C468.097687,52.329865 468.299347,65.800842 473.809448,73.231468 
	C481.764954,83.959831 498.492157,86.153671 512.323853,77.725632 
M554.704895,45.818401 
	C556.430359,44.635086 558.568481,43.736176 559.676941,42.127682 
	C560.116699,41.489475 558.653503,38.556087 557.406555,37.896168 
	C548.166077,33.005741 538.643433,32.334518 529.321777,37.594078 
	C524.197388,40.485386 522.158997,45.240673 522.979492,51.136444 
	C523.747070,56.651760 527.369446,59.541241 532.332458,60.931786 
	C536.320801,62.049267 540.419922,62.769608 544.465393,63.685894 
	C547.502625,64.373810 550.573059,65.198685 550.077271,69.275902 
	C549.622986,73.011475 546.660339,74.347824 543.565430,74.058914 
	C538.351746,73.572235 533.227295,72.181755 528.018799,71.561432 
	C526.170471,71.341301 524.186768,72.258759 522.264832,72.656891 
	C522.797668,74.717339 522.650940,77.579346 523.977295,78.703888 
	C530.898621,84.572250 549.076904,84.281807 556.161255,78.614937 
	C560.522644,75.126221 561.801636,70.484512 560.915466,65.225815 
	C560.098877,60.380211 556.558899,57.872364 552.185364,56.638725 
	C548.040405,55.469540 543.755005,54.807896 539.562683,53.793507 
	C536.596191,53.075733 533.463745,52.214554 533.780762,48.203869 
	C534.096191,44.214413 537.119324,42.703365 540.445557,42.993393 
	C544.990601,43.389702 549.460571,44.647038 554.704895,45.818401 
M334.041809,67.176033 
	C338.746063,83.008583 357.645935,86.059143 368.934418,80.070541 
	C371.765869,78.568420 373.524963,76.593811 372.122833,73.298813 
	C370.685425,69.920830 368.141724,70.744904 365.408752,71.661430 
	C362.770630,72.546143 359.957947,73.451378 357.230042,73.427437 
	C348.469086,73.350555 343.249939,64.826401 345.252319,54.345631 
	C346.747833,46.517998 352.065063,42.645309 360.005005,43.866829 
	C362.254944,44.212975 364.389099,45.739094 366.598663,45.792004 
	C368.536469,45.838417 371.577759,45.068615 372.173309,43.764824 
	C372.830017,42.327175 371.595703,39.658199 370.526123,37.934475 
	C369.861969,36.864105 368.024353,36.406090 366.626709,35.925282 
	C357.000153,32.613640 347.689148,33.207798 339.931427,40.112728 
	C331.970551,47.198494 331.725952,56.652027 334.041809,67.176033 
M447.882965,52.818020 
	C449.068390,48.220230 452.436768,46.121952 456.742798,45.150482 
	C458.685028,44.712299 460.698303,44.545578 462.602264,43.991070 
	C465.806305,43.057915 466.456635,40.534462 465.857391,37.660381 
	C465.234283,34.671856 463.046509,33.320839 460.277466,34.345215 
	C455.677490,36.046955 451.256836,38.233410 446.882660,40.161911 
	C445.622437,35.558151 443.672394,33.700062 439.834412,34.408554 
	C434.943420,35.311432 434.962708,39.062733 434.977325,42.867878 
	C435.018158,53.502148 434.966553,64.136757 435.002136,74.771065 
	C435.020660,80.299522 436.835999,82.662926 440.975067,82.774551 
	C445.136200,82.886780 446.984161,80.510002 447.122314,75.017891 
	C447.301514,67.892151 447.538879,60.767872 447.882965,52.818020 
z"/>
<path fill="#2C44AA" opacity="1.000000" stroke="none" 
	d="
M145.118042,60.178566 
	C145.107254,65.984070 145.073669,71.312515 145.093292,76.640762 
	C145.107544,80.513283 143.107407,82.630241 139.364838,82.735565 
	C135.617630,82.841019 133.255295,80.721573 133.212677,76.978004 
	C133.072464,64.658585 133.095810,52.336079 133.199600,40.015968 
	C133.226746,36.794327 135.064835,34.610760 138.396637,34.366436 
	C142.759872,34.046474 144.782898,36.561214 145.050064,41.416103 
	C149.323364,36.563854 154.110016,33.857159 160.079025,34.152046 
	C165.980530,34.443592 170.643311,36.924763 173.140747,43.199562 
	C176.736664,37.611160 181.503998,34.804729 187.563751,34.183117 
	C196.041000,33.313519 202.936081,37.626678 203.803741,46.027420 
	C204.876190,56.410778 204.654892,66.942909 204.674942,77.411362 
	C204.681671,80.929337 202.090393,82.824829 198.643173,82.730408 
	C194.910141,82.628166 192.940750,80.489372 192.889404,76.632744 
	C192.774246,67.982887 192.718155,59.328873 192.374451,50.687031 
	C192.232315,47.112919 190.640305,44.288837 186.488098,43.837818 
	C182.325806,43.385712 178.642822,44.206047 176.968842,48.405262 
	C175.888062,51.116390 175.202133,54.132668 175.072449,57.044849 
	C174.791214,63.360111 175.302002,69.721870 174.802475,76.010086 
	C174.628235,78.203468 172.928070,81.163635 171.064194,82.153938 
	C166.906235,84.363167 163.103027,81.288872 162.996628,76.042389 
	C162.831223,67.887131 163.172684,59.708988 162.691681,51.576488 
	C162.263092,44.330055 155.478363,41.025280 149.927704,45.210682 
	C148.102829,46.586708 146.731812,49.066093 146.040741,51.313801 
	C145.228806,53.954601 145.382889,56.892418 145.118042,60.178566 
z"/>
<path fill="#2C44AA" opacity="1.000000" stroke="none" 
	d="
M273.869812,69.838425 
	C276.068512,65.691864 278.854187,66.916267 281.654236,68.396645 
	C288.675720,72.108826 296.170227,73.106361 303.946045,72.091713 
	C305.874329,71.840080 308.255402,71.470322 309.475647,70.222908 
	C311.297974,68.359978 313.411865,65.609726 313.290649,63.350216 
	C313.171143,61.122925 310.861237,57.982189 308.740936,57.103485 
	C304.036346,55.153797 298.843750,54.388817 293.860107,53.102249 
	C291.289948,52.438747 288.677216,51.865982 286.194824,50.950817 
	C279.384613,48.440155 274.982910,43.764790 274.368652,36.314117 
	C273.763580,28.975130 276.415894,22.911169 282.477081,18.569019 
	C292.230530,11.581759 310.618500,11.735829 320.401154,18.748823 
	C323.110504,20.691088 324.050232,23.099937 322.423553,26.063406 
	C320.727875,29.152628 318.199158,28.139416 315.458374,27.464663 
	C309.727203,26.053711 303.918854,24.751728 298.065399,24.141092 
	C295.663239,23.890497 292.394623,24.862644 290.724335,26.504005 
	C288.714355,28.479193 286.875305,31.828068 287.037933,34.453682 
	C287.180725,36.759579 289.755005,39.757751 292.031708,40.892593 
	C295.514221,42.628498 299.672394,42.994339 303.528809,43.999058 
	C307.063629,44.919983 310.651459,45.710735 314.086884,46.924217 
	C320.702789,49.261105 325.282288,53.613689 325.815582,60.966915 
	C326.368591,68.592049 323.280487,74.569496 316.711517,78.617912 
	C306.539459,84.886887 285.537598,84.243469 276.177124,76.941071 
	C274.579285,75.694557 274.507751,72.491592 273.869812,69.838425 
z"/>
<path fill="#2D44AA" opacity="1.000000" stroke="none" 
	d="
M259.735046,75.655396 
	C250.089737,85.160988 240.823380,85.360954 229.166702,75.999214 
	C229.166702,81.937828 229.223038,87.300781 229.150711,92.661995 
	C229.079849,97.914101 227.286438,100.062035 223.133713,99.979591 
	C218.190704,99.881477 217.152725,96.551895 217.148819,92.496368 
	C217.132599,75.668571 217.146729,58.840748 217.137421,42.012943 
	C217.135300,38.204063 217.917892,34.777092 222.464035,34.381100 
	C227.092819,33.977913 229.076111,36.746075 229.147491,41.695408 
	C234.379974,35.594742 240.510468,33.213882 248.050293,34.561840 
	C254.446930,35.705418 259.275238,39.125050 261.877380,44.885864 
	C266.561676,55.256180 266.215729,65.556488 259.735046,75.655396 
M242.988632,43.372215 
	C236.246033,43.220371 231.780365,45.054218 230.734253,50.306442 
	C229.677429,55.612556 229.436157,61.576496 230.782898,66.745422 
	C232.626968,73.823166 241.745132,76.140800 247.525238,71.688248 
	C252.902130,67.546280 253.277069,61.453457 252.665787,55.379608 
	C252.103210,49.789593 249.901291,45.095539 242.988632,43.372215 
z"/>
<path fill="#2C43AA" opacity="1.000000" stroke="none" 
	d="
M57.309105,70.652084 
	C59.501297,69.683914 61.334232,68.903252 63.129742,68.044342 
	C65.866951,66.734955 68.252800,66.747330 70.035408,69.616631 
	C71.910423,72.634659 71.097580,75.654526 68.359856,76.925659 
	C63.163132,79.338509 57.695469,81.949364 52.116955,82.620132 
	C30.486183,85.221001 15.313097,71.587090 14.854178,49.807377 
	C14.548799,35.314426 18.695097,22.888224 32.931099,16.585230 
	C44.138596,11.623110 55.617516,12.123071 66.600075,17.983736 
	C69.844231,19.714926 71.980972,22.261490 70.123291,26.096262 
	C68.152351,30.164827 65.074661,29.050941 61.632931,27.812353 
	C57.328106,26.263153 52.732521,24.437477 48.300621,24.531443 
	C35.582130,24.801105 28.610085,32.214733 28.049719,45.026001 
	C27.904940,48.335991 27.811771,51.749931 28.432556,54.974087 
	C31.092937,68.791260 40.996658,74.197960 57.309105,70.652084 
z"/>
<path fill="#2C43AA" opacity="1.000000" stroke="none" 
	d="
M122.823387,54.489017 
	C125.139496,75.962555 109.162125,86.707207 91.177040,81.757088 
	C79.312386,78.491524 73.053940,66.244598 75.754684,52.659382 
	C78.186317,40.427845 88.160385,33.069862 100.807800,34.177422 
	C113.335945,35.274536 120.230782,41.509739 122.823387,54.489017 
M108.571449,48.163658 
	C105.331963,43.819233 101.098831,42.341988 95.868835,43.782391 
	C90.676537,45.212414 88.280960,49.092766 87.818825,54.018410 
	C87.468796,57.749058 87.518806,61.662926 88.266937,65.315819 
	C89.316055,70.438301 93.705147,73.654404 98.613945,73.852402 
	C103.806709,74.061852 108.267097,71.011436 109.888817,65.788788 
	C111.665451,60.067276 111.623985,54.353996 108.571449,48.163658 
z"/>
<path fill="#2C43AA" opacity="1.000000" stroke="none" 
	d="
M383.714081,40.711506 
	C395.844055,30.696136 412.978577,32.290661 421.011780,43.900230 
	C428.513794,54.742058 425.561737,72.348808 415.098053,79.171646 
	C404.251709,86.243996 387.709930,83.067162 380.952484,72.614037 
	C374.986969,63.385910 376.024872,50.272617 383.714081,40.711506 
M412.773224,54.180752 
	C412.557312,53.380413 412.373993,52.569595 412.120300,51.781418 
	C410.298706,46.122227 406.081512,42.941032 400.785950,43.212761 
	C395.240326,43.497318 391.061249,46.741478 390.128693,52.557926 
	C389.488007,56.554268 389.497833,60.826530 390.161469,64.818436 
	C391.062592,70.239059 395.494873,73.629517 400.583313,73.850075 
	C405.981750,74.084068 410.513123,70.970818 411.917053,65.331970 
	C412.741211,62.021877 412.596405,58.470535 412.773224,54.180752 
z"/>
<path fill="#2D44AA" opacity="1.000000" stroke="none" 
	d="
M512.034973,77.966316 
	C498.492157,86.153671 481.764954,83.959831 473.809448,73.231468 
	C468.299347,65.800842 468.097687,52.329865 473.378845,44.468491 
	C479.045654,36.033066 489.123627,32.323799 499.221436,34.956936 
	C508.804413,37.455818 515.557495,47.479935 514.467285,57.442638 
	C514.091187,60.879498 511.749207,61.186714 509.089081,61.186527 
	C499.935944,61.185883 490.782837,61.186279 481.638824,61.186279 
	C481.361206,69.223640 487.295959,74.547173 495.909973,73.725136 
	C499.487946,73.383690 502.936462,71.841919 506.510193,71.239204 
	C508.562378,70.893082 510.747437,71.334778 512.872681,71.421806 
	C512.689758,73.523079 512.506836,75.624359 512.034973,77.966316 
M483.949554,54.245106 
	C490.636993,54.245106 497.324432,54.245106 504.027588,54.245106 
	C503.582184,46.621265 500.353760,42.888630 494.387634,42.323830 
	C488.322968,41.749699 482.831970,45.698112 481.655273,51.703144 
	C481.513245,52.427998 482.563049,53.386387 483.949554,54.245106 
z"/>
<path fill="#2D45AB" opacity="1.000000" stroke="none" 
	d="
M554.333862,45.676838 
	C549.460571,44.647038 544.990601,43.389702 540.445557,42.993393 
	C537.119324,42.703365 534.096191,44.214413 533.780762,48.203869 
	C533.463745,52.214554 536.596191,53.075733 539.562683,53.793507 
	C543.755005,54.807896 548.040405,55.469540 552.185364,56.638725 
	C556.558899,57.872364 560.098877,60.380211 560.915466,65.225815 
	C561.801636,70.484512 560.522644,75.126221 556.161255,78.614937 
	C549.076904,84.281807 530.898621,84.572250 523.977295,78.703888 
	C522.650940,77.579346 522.797668,74.717339 522.264832,72.656891 
	C524.186768,72.258759 526.170471,71.341301 528.018799,71.561432 
	C533.227295,72.181755 538.351746,73.572235 543.565430,74.058914 
	C546.660339,74.347824 549.622986,73.011475 550.077271,69.275902 
	C550.573059,65.198685 547.502625,64.373810 544.465393,63.685894 
	C540.419922,62.769608 536.320801,62.049267 532.332458,60.931786 
	C527.369446,59.541241 523.747070,56.651760 522.979492,51.136444 
	C522.158997,45.240673 524.197388,40.485386 529.321777,37.594078 
	C538.643433,32.334518 548.166077,33.005741 557.406555,37.896168 
	C558.653503,38.556087 560.116699,41.489475 559.676941,42.127682 
	C558.568481,43.736176 556.430359,44.635086 554.333862,45.676838 
z"/>
<path fill="#2C44AA" opacity="1.000000" stroke="none" 
	d="
M333.935364,66.776184 
	C331.725952,56.652027 331.970551,47.198494 339.931427,40.112728 
	C347.689148,33.207798 357.000153,32.613640 366.626709,35.925282 
	C368.024353,36.406090 369.861969,36.864105 370.526123,37.934475 
	C371.595703,39.658199 372.830017,42.327175 372.173309,43.764824 
	C371.577759,45.068615 368.536469,45.838417 366.598663,45.792004 
	C364.389099,45.739094 362.254944,44.212975 360.005005,43.866829 
	C352.065063,42.645309 346.747833,46.517998 345.252319,54.345631 
	C343.249939,64.826401 348.469086,73.350555 357.230042,73.427437 
	C359.957947,73.451378 362.770630,72.546143 365.408752,71.661430 
	C368.141724,70.744904 370.685425,69.920830 372.122833,73.298813 
	C373.524963,76.593811 371.765869,78.568420 368.934418,80.070541 
	C357.645935,86.059143 338.746063,83.008583 333.935364,66.776184 
z"/>
<path fill="#2B43AA" opacity="1.000000" stroke="none" 
	d="
M447.817078,53.230492 
	C447.538879,60.767872 447.301514,67.892151 447.122314,75.017891 
	C446.984161,80.510002 445.136200,82.886780 440.975067,82.774551 
	C436.835999,82.662926 435.020660,80.299522 435.002136,74.771065 
	C434.966553,64.136757 435.018158,53.502148 434.977325,42.867878 
	C434.962708,39.062733 434.943420,35.311432 439.834412,34.408554 
	C443.672394,33.700062 445.622437,35.558151 446.882660,40.161911 
	C451.256836,38.233410 455.677490,36.046955 460.277466,34.345215 
	C463.046509,33.320839 465.234283,34.671856 465.857391,37.660381 
	C466.456635,40.534462 465.806305,43.057915 462.602264,43.991070 
	C460.698303,44.545578 458.685028,44.712299 456.742798,45.150482 
	C452.436768,46.121952 449.068390,48.220230 447.817078,53.230492 
z"/>
<path fill="#FAFAFD" opacity="1.000000" stroke="none" 
	d="
M243.361099,43.478142 
	C249.901291,45.095539 252.103210,49.789593 252.665787,55.379608 
	C253.277069,61.453457 252.902130,67.546280 247.525238,71.688248 
	C241.745132,76.140800 232.626968,73.823166 230.782898,66.745422 
	C229.436157,61.576496 229.677429,55.612556 230.734253,50.306442 
	C231.780365,45.054218 236.246033,43.220371 243.361099,43.478142 
z"/>
<path fill="#FAFBFD" opacity="1.000000" stroke="none" 
	d="
M108.765465,48.497261 
	C111.623985,54.353996 111.665451,60.067276 109.888817,65.788788 
	C108.267097,71.011436 103.806709,74.061852 98.613945,73.852402 
	C93.705147,73.654404 89.316055,70.438301 88.266937,65.315819 
	C87.518806,61.662926 87.468796,57.749058 87.818825,54.018410 
	C88.280960,49.092766 90.676537,45.212414 95.868835,43.782391 
	C101.098831,42.341988 105.331963,43.819233 108.765465,48.497261 
z"/>
<path fill="#FAFBFD" opacity="1.000000" stroke="none" 
	d="
M412.830322,54.604229 
	C412.596405,58.470535 412.741211,62.021877 411.917053,65.331970 
	C410.513123,70.970818 405.981750,74.084068 400.583313,73.850075 
	C395.494873,73.629517 391.062592,70.239059 390.161469,64.818436 
	C389.497833,60.826530 389.488007,56.554268 390.128693,52.557926 
	C391.061249,46.741478 395.240326,43.497318 400.785950,43.212761 
	C406.081512,42.941032 410.298706,46.122227 412.120300,51.781418 
	C412.373993,52.569595 412.557312,53.380413 412.830322,54.604229 
z"/>
<path fill="#FAFBFD" opacity="1.000000" stroke="none" 
	d="
M483.505005,54.240822 
	C482.563049,53.386387 481.513245,52.427998 481.655273,51.703144 
	C482.831970,45.698112 488.322968,41.749699 494.387634,42.323830 
	C500.353760,42.888630 503.582184,46.621265 504.027588,54.245106 
	C497.324432,54.245106 490.636993,54.245106 483.505005,54.240822 
z"/>
</svg>